<svg xmlns="http://www.w3.org/2000/svg" width="681" height="93" viewBox="0 0 681 93">
  <g id="Group_5" data-name="Group 5" transform="translate(-349 -539)">
    <rect id="Rectangle_1" data-name="Rectangle 1" width="581" height="93" transform="translate(349 539)" fill="#e30604"/>
    <path id="Path_1" data-name="Path 1" d="M42.09-6.982Q42.09,0,35.107,0H4.59V-76.416H34.912q6.787,0,6.787,7.031v19.678a7.639,7.639,0,0,1-2.441,6.055q-.342.293-5.957,3.76,5.811,3.564,6.152,3.906a7.915,7.915,0,0,1,2.637,6.3ZM30.322-48.291V-66.8H16.016v22.412H24.8Zm.293,38.672V-31.4L25-35.107H16.016V-9.619ZM89.307-6.982Q89.307,0,82.275,0H58.008q-6.934,0-6.934-6.982V-76.416H62.5v66.6H77.881v-66.6H89.307ZM137.207,0H127.2L108.887-48.1a28.864,28.864,0,0,1,.732,5.518V0H98.486V-76.416H108.5L126.807-29.3a28.864,28.864,0,0,1-.732-5.518v-41.6h11.133ZM179.59-66.309h-12.6V0H155.615V-66.309h-12.6V-76.416H179.59ZM217.09,0H185.4V-76.416h31.4v10.107H196.826v22.314h17.188v9.912H196.826v23.975H217.09ZM291.7,0H280.713V-37.7A69.545,69.545,0,0,1,281.4-46L271.533-6.982h-5.811L255.811-46a71.643,71.643,0,0,1,.684,8.3V0H245.508V-76.416H256.3L268.311-34.18a20.138,20.138,0,0,1,.293,3.467,28.8,28.8,0,0,1,.293-3.467l12.012-42.236H291.7Zm47.656-6.982Q339.355,0,332.422,0h-24.8q-6.787,0-6.787-6.982v-62.4q0-7.031,6.787-7.031h24.8q6.934,0,6.934,7.031ZM327.93-9.814V-66.6H312.256V-9.814ZM394.727,0H383.74V-37.7a69.545,69.545,0,0,1,.684-8.3L374.561-6.982H368.75L358.838-46a71.643,71.643,0,0,1,.684,8.3V0H348.535V-76.416h10.791L371.338-34.18a20.138,20.138,0,0,1,.293,3.467,28.8,28.8,0,0,1,.293-3.467l12.012-42.236h10.791Zm40.82,0H403.857V-76.416h31.4v10.107H415.283v22.314h17.188v9.912H415.283v23.975h20.264ZM482.08,0H472.07L453.76-48.1a28.864,28.864,0,0,1,.732,5.518V0H443.359V-76.416h10.01L471.68-29.3a28.864,28.864,0,0,1-.732-5.518v-41.6H482.08Zm42.383-66.309h-12.6V0H500.488V-66.309h-12.6V-76.416h36.572ZM566.895-6.982Q566.895,0,559.961,0h-23q-6.885,0-6.885-6.982V-25.2H541.5V-9.619h13.965v-14.99l-22.9-21.68a8.1,8.1,0,0,1-2.49-6.1V-69.385q0-7.031,6.885-7.031h23q6.934,0,6.934,6.934v17.09H555.469V-66.8H541.5v13.818L564.4-31.4a8.117,8.117,0,0,1,2.49,6.2Z" transform="translate(354.5 624.5)" fill="#fff" stroke="#fff" stroke-width="3"/>
    <rect id="Rectangle_2" data-name="Rectangle 2" width="96" height="93" transform="translate(934 539)" fill="#e30604"/>
    <path id="Path_2" data-name="Path 2" d="M4.307,0V-8.232h8.232V0ZM49.512,0H41.865V-4.57a12.354,12.354,0,0,1-4.5,3.97A11.538,11.538,0,0,1,32.139.7a11.851,11.851,0,0,1-9.185-4.321q-3.823-4.321-3.823-12.056,0-7.91,3.721-12.026a12.13,12.13,0,0,1,9.4-4.116,11.649,11.649,0,0,1,9.023,4.336V-42.949h8.232ZM27.539-16.23q0,4.98,1.377,7.207A6.221,6.221,0,0,0,34.482-5.8a6.059,6.059,0,0,0,4.834-2.417q1.992-2.417,1.992-7.222,0-5.361-1.934-7.72a6.119,6.119,0,0,0-4.951-2.358,6.185,6.185,0,0,0-4.907,2.329Q27.539-20.859,27.539-16.23ZM75.645-9.9l8.2,1.377a13.455,13.455,0,0,1-5,6.87A14.674,14.674,0,0,1,70.313.7Q62.2.7,58.3-4.6a17.815,17.815,0,0,1-3.076-10.723q0-7.734,4.043-12.114a13.315,13.315,0,0,1,10.225-4.38q6.943,0,10.957,4.585t3.838,14.048H63.662a8.329,8.329,0,0,0,1.992,5.7A6.231,6.231,0,0,0,70.4-5.449,5.041,5.041,0,0,0,73.652-6.5,6.513,6.513,0,0,0,75.645-9.9Zm.469-8.32a7.926,7.926,0,0,0-1.846-5.435,5.664,5.664,0,0,0-4.277-1.86,5.718,5.718,0,0,0-4.453,1.963,7.6,7.6,0,0,0-1.729,5.332Z" transform="translate(939 624)" fill="#fff"/>
  </g>
</svg>
